<?xml version="1.0" encoding="UTF-8"?>
<svg xmlns="http://www.w3.org/2000/svg" version="1.1" viewBox="0 0 311.5 311.5">
  <defs>
    <style>
      .cls-1 {
        fill: none;
      }

      .cls-2 {
        fill: #40d1f5;
        fill-rule: evenodd;
      }
    </style>
  </defs>
  <!-- Generator: Adobe Illustrator 28.7.1, SVG Export Plug-In . SVG Version: 1.2.0 Build 142)  -->
  <g>
    <g id="Layer_1">
      <path class="cls-2" d="M0,302.3h254.4v-38.7H38.7V47.9h215.8v141.6h-18.5l37.7,37.8,37.8-37.8h-18.4V9.2H0v293.1ZM98.1,71.7c5-.8,10.7-1.4,17.3-1.9,6.6-.5,14.7-.7,24.5-.7s16.6.7,24.2,2.1c7.6,1.4,14.3,3.8,19.9,7.1,5.7,3.4,10.1,7.8,13.4,13.4,3.3,5.6,4.9,12.6,4.9,21s-.7,9.6-2.2,13.9c-1.5,4.3-3.5,8-5.9,11.2-2.5,3.2-5.3,5.8-8.4,7.9-3.1,2.1-6.3,3.4-9.5,3.8,3.6.5,7.5,1.6,11.9,3.3,4.3,1.7,8.4,4.2,12.1,7.6,3.7,3.3,6.9,7.7,9.3,12.9,2.5,5.3,3.7,11.6,3.7,19.1s-1.9,18.4-5.7,24.8c-3.8,6.5-8.9,11.5-15.4,15.3-6.4,3.7-13.9,6.3-22.4,7.7-8.5,1.4-17.4,2.1-26.7,2.1s-14.2-.2-21.2-.6c-7-.4-14.9-1.1-23.8-2.2V71.7ZM131.9,213.9v-48.5h14c4.8,0,9.2.4,13.2,1.2,4,.8,7.4,2.1,10.3,4.1,2.9,1.9,5.1,4.5,6.6,7.7,1.5,3.2,2.3,7.2,2.3,12s-1,9.3-3,12.5c-2,3.2-4.6,5.7-7.7,7.5-3.1,1.8-6.5,3-10,3.6-3.6.6-7,.9-10.3.9s-4.9,0-7.8-.2c-2.9-.2-5.4-.4-7.6-.7M142.2,139.8h-10.3v-44.8c3-.5,6.6-.7,11-.7s6.3.3,9.4.8c3.2.6,6.1,1.6,8.6,3.3,2.6,1.6,4.7,3.9,6.3,6.8,1.6,2.9,2.4,6.6,2.4,11.1s-.7,8.5-2.1,11.6c-1.4,3-3.3,5.4-5.8,7.2-2.5,1.8-5.4,3-8.8,3.7-3.3.7-6.9,1-10.8,1"/>
      <rect class="cls-1" x="-347.5" y="-198.4" width="1000" height="700"/>
    </g>
  </g>
</svg>